# xmcd
#
# Track frame offsets: 
#        150
#        21351
#        50814
#        74462
#        97110
#        116541
#        144254
#        170187
#        193281
#        217863
#        237808
#        258912
#        280380
#
# Disc length: 3866 seconds
#
# Revision: 0
# Processed by: cddbd v1.5.2PL0 Copyright (c) Steve Scherf et al.
# Submitted via: ExactAudioCopyFreeDBPlugin 1.0
#
DISCID=ca0f180d
DTITLE=NY 물고기 - Forest of truth
DYEAR=1900
DGENRE=
TTITLE0=Love Again (러브어게인) 
TTITLE1=눈먼 가슴
TTITLE2=사람이다
TTITLE3=반
TTITLE4=Like A French Movie 
TTITLE5=진실의 숲
TTITLE6=날아라 물고기
TTITLE7=찰리 채플린의 아이러니
TTITLE8=왜 자꾸 눈물이
TTITLE9=Thasha Tudor's Garden (타샤의 정원
TTITLE10=여행 같은 삶
TTITLE11=낮잠이 준 선물 (Bing Bing Bing) 
TTITLE12=Note. Y 
EXTD=
EXTT0=
EXTT1=
EXTT2=
EXTT3=
EXTT4=
EXTT5=
EXTT6=
EXTT7=
EXTT8=
EXTT9=
EXTT10=
EXTT11=
EXTT12=
PLAYORDER=
